<svg xmlns="http://www.w3.org/2000/svg" viewBox="0 0 800 500" width="100%" height="100%">
<defs>
  <filter id="flash-glow" x="-20%" y="-20%" width="140%" height="140%">
        <feGaussianBlur stdDeviation="4" result="blur" />
        <feComposite in="SourceGraphic" in2="blur" operator="over" />
      </filter>
</defs>
<rect width="800" height="500" fill="#111827" rx="12" />
  <line x1="90" y1="430.0" x2="620" y2="430.0" stroke="#374151" stroke-dasharray="3,3" stroke-width="1" />
  <text x="78" y="434.0" fill="#9CA3AF" font-family="system-ui, sans-serif" font-size="11" text-anchor="end">0 MB</text>
  <line x1="90" y1="340.0" x2="620" y2="340.0" stroke="#374151" stroke-dasharray="3,3" stroke-width="1" />
  <text x="78" y="344.0" fill="#9CA3AF" font-family="system-ui, sans-serif" font-size="11" text-anchor="end">32 MB</text>
  <line x1="90" y1="250.0" x2="620" y2="250.0" stroke="#374151" stroke-dasharray="3,3" stroke-width="1" />
  <text x="78" y="254.0" fill="#9CA3AF" font-family="system-ui, sans-serif" font-size="11" text-anchor="end">64 MB</text>
  <line x1="90" y1="160.0" x2="620" y2="160.0" stroke="#374151" stroke-dasharray="3,3" stroke-width="1" />
  <text x="78" y="164.0" fill="#9CA3AF" font-family="system-ui, sans-serif" font-size="11" text-anchor="end">96 MB</text>
  <line x1="90" y1="70.0" x2="620" y2="70.0" stroke="#374151" stroke-dasharray="3,3" stroke-width="1" />
  <text x="78" y="74.0" fill="#9CA3AF" font-family="system-ui, sans-serif" font-size="11" text-anchor="end">128 MB</text>
  <line x1="90.0" y1="70" x2="90.0" y2="430" stroke="#374151" stroke-width="0.5" />
  <text x="90.0" y="454" fill="#9CA3AF" font-family="system-ui, sans-serif" font-size="12" text-anchor="middle" font-weight="500">N=256</text>
  <line x1="222.5" y1="70" x2="222.5" y2="430" stroke="#374151" stroke-width="0.5" />
  <text x="222.5" y="454" fill="#9CA3AF" font-family="system-ui, sans-serif" font-size="12" text-anchor="middle" font-weight="500">N=512</text>
  <line x1="355.0" y1="70" x2="355.0" y2="430" stroke="#374151" stroke-width="0.5" />
  <text x="355.0" y="454" fill="#9CA3AF" font-family="system-ui, sans-serif" font-size="12" text-anchor="middle" font-weight="500">N=1024</text>
  <line x1="487.5" y1="70" x2="487.5" y2="430" stroke="#374151" stroke-width="0.5" />
  <text x="487.5" y="454" fill="#9CA3AF" font-family="system-ui, sans-serif" font-size="12" text-anchor="middle" font-weight="500">N=2048</text>
  <line x1="620.0" y1="70" x2="620.0" y2="430" stroke="#374151" stroke-width="0.5" />
  <text x="620.0" y="454" fill="#9CA3AF" font-family="system-ui, sans-serif" font-size="12" text-anchor="middle" font-weight="500">N=4096</text>
  <text x="90" y="38" fill="#F9FAFB" font-family="system-ui, sans-serif" font-size="18" font-weight="700">Attention Intermediate Memory Footprint</text>
  <text x="90" y="54" fill="#9CA3AF" font-family="system-ui, sans-serif" font-size="11">Sequence Length vs. Physical NxN Attention Matrix Materialization in HBM (lower is better)</text>
  <path d="M 90.0,428.59375 L 222.5,424.375 L 355.0,407.5 L 487.5,340.0 L 620.0,70.0" fill="none" stroke="#E74C3C" stroke-width="3" stroke-linecap="round" stroke-linejoin="round" />
  <text x="608.0" y="58.0" fill="#E74C3C" font-family="system-ui, sans-serif" font-size="12" font-weight="700" text-anchor="end">128 MB (O(N˛))</text>
  <circle cx="90.0" cy="428.59375" r="5" fill="#111827" stroke="#E74C3C" stroke-width="2.5" />
  <circle cx="222.5" cy="424.375" r="5" fill="#111827" stroke="#E74C3C" stroke-width="2.5" />
  <circle cx="355.0" cy="407.5" r="5" fill="#111827" stroke="#E74C3C" stroke-width="2.5" />
  <circle cx="487.5" cy="340.0" r="5" fill="#111827" stroke="#E74C3C" stroke-width="2.5" />
  <circle cx="620.0" cy="70.0" r="5" fill="#111827" stroke="#E74C3C" stroke-width="2.5" />
  <path d="M 90.0,430.0 L 222.5,430.0 L 355.0,430.0 L 487.5,430.0 L 620.0,430.0" fill="none" stroke="#2ECC71" stroke-width="4" stroke-linecap="round" stroke-linejoin="round" filter="url(#flash-glow)" />
  <text x="608.0" y="418.0" fill="#2ECC71" font-family="system-ui, sans-serif" font-size="12" font-weight="700" text-anchor="end">0 MB (SRAM Fused)</text>
  <circle cx="90.0" cy="430.0" r="5" fill="#111827" stroke="#2ECC71" stroke-width="2.5" />
  <circle cx="90.0" cy="430.0" r="2" fill="#2ECC71" />
  <circle cx="222.5" cy="430.0" r="5" fill="#111827" stroke="#2ECC71" stroke-width="2.5" />
  <circle cx="222.5" cy="430.0" r="2" fill="#2ECC71" />
  <circle cx="355.0" cy="430.0" r="5" fill="#111827" stroke="#2ECC71" stroke-width="2.5" />
  <circle cx="355.0" cy="430.0" r="2" fill="#2ECC71" />
  <circle cx="487.5" cy="430.0" r="5" fill="#111827" stroke="#2ECC71" stroke-width="2.5" />
  <circle cx="487.5" cy="430.0" r="2" fill="#2ECC71" />
  <circle cx="620.0" cy="430.0" r="5" fill="#111827" stroke="#2ECC71" stroke-width="2.5" />
  <circle cx="620.0" cy="430.0" r="2" fill="#2ECC71" />
  <rect x="635" y="70" width="150" height="90" fill="#1F2937" rx="8" stroke="#374151" stroke-width="1" />
  <rect x="645" y="74" width="14" height="14" fill="#E74C3C" rx="3" />
  <text x="667" y="85" fill="#F3F4F6" font-family="system-ui, sans-serif" font-size="11" font-weight="600">Standard (S &amp; P)</text>
  <rect x="645" y="104" width="14" height="14" fill="#2ECC71" rx="3" />
  <text x="667" y="115" fill="#F3F4F6" font-family="system-ui, sans-serif" font-size="11" font-weight="600">FlashAttention</text>
  <text x="40" y="55" fill="#9CA3AF" font-family="system-ui, sans-serif" font-size="11" font-weight="600">Memory Consumed</text>
</svg>