<svg xmlns="http://www.w3.org/2000/svg" viewBox="0 0 800 500" width="100%" height="100%">
<defs>
  <filter id="fused-glow" x="-20%" y="-20%" width="140%" height="140%">
        <feGaussianBlur stdDeviation="4" result="blur" />
        <feComposite in="SourceGraphic" in2="blur" operator="over" />
      </filter>
</defs>
<rect width="800" height="500" fill="#111827" rx="12" />
  <line x1="90" y1="430.0" x2="620" y2="430.0" stroke="#374151" stroke-dasharray="3,3" stroke-width="1" />
  <text x="78" y="434.0" fill="#9CA3AF" font-family="system-ui, sans-serif" font-size="11" text-anchor="end">10 us</text>
  <line x1="90" y1="378.57142857142856" x2="620" y2="378.57142857142856" stroke="#374151" stroke-dasharray="3,3" stroke-width="1" />
  <text x="78" y="382.57142857142856" fill="#9CA3AF" font-family="system-ui, sans-serif" font-size="11" text-anchor="end">100 us</text>
  <line x1="90" y1="327.14285714285717" x2="620" y2="327.14285714285717" stroke="#374151" stroke-dasharray="3,3" stroke-width="1" />
  <text x="78" y="331.14285714285717" fill="#9CA3AF" font-family="system-ui, sans-serif" font-size="11" text-anchor="end">1 ms</text>
  <line x1="90" y1="275.7142857142857" x2="620" y2="275.7142857142857" stroke="#374151" stroke-dasharray="3,3" stroke-width="1" />
  <text x="78" y="279.7142857142857" fill="#9CA3AF" font-family="system-ui, sans-serif" font-size="11" text-anchor="end">10 ms</text>
  <line x1="90" y1="224.2857142857143" x2="620" y2="224.2857142857143" stroke="#374151" stroke-dasharray="3,3" stroke-width="1" />
  <text x="78" y="228.2857142857143" fill="#9CA3AF" font-family="system-ui, sans-serif" font-size="11" text-anchor="end">100 ms</text>
  <line x1="90" y1="172.85714285714283" x2="620" y2="172.85714285714283" stroke="#374151" stroke-dasharray="3,3" stroke-width="1" />
  <text x="78" y="176.85714285714283" fill="#9CA3AF" font-family="system-ui, sans-serif" font-size="11" text-anchor="end">1 s</text>
  <line x1="90" y1="121.42857142857144" x2="620" y2="121.42857142857144" stroke="#374151" stroke-dasharray="3,3" stroke-width="1" />
  <text x="78" y="125.42857142857144" fill="#9CA3AF" font-family="system-ui, sans-serif" font-size="11" text-anchor="end">10 s</text>
  <line x1="90" y1="70.0" x2="620" y2="70.0" stroke="#374151" stroke-dasharray="3,3" stroke-width="1" />
  <text x="78" y="74.0" fill="#9CA3AF" font-family="system-ui, sans-serif" font-size="11" text-anchor="end">100 s</text>
  <line x1="90.0" y1="70" x2="90.0" y2="430" stroke="#374151" stroke-width="0.5" />
  <text x="90.0" y="454" fill="#9CA3AF" font-family="system-ui, sans-serif" font-size="12" text-anchor="middle" font-weight="500">N=256</text>
  <line x1="222.5" y1="70" x2="222.5" y2="430" stroke="#374151" stroke-width="0.5" />
  <text x="222.5" y="454" fill="#9CA3AF" font-family="system-ui, sans-serif" font-size="12" text-anchor="middle" font-weight="500">N=512</text>
  <line x1="355.0" y1="70" x2="355.0" y2="430" stroke="#374151" stroke-width="0.5" />
  <text x="355.0" y="454" fill="#9CA3AF" font-family="system-ui, sans-serif" font-size="12" text-anchor="middle" font-weight="500">N=1024</text>
  <line x1="487.5" y1="70" x2="487.5" y2="430" stroke="#374151" stroke-width="0.5" />
  <text x="487.5" y="454" fill="#9CA3AF" font-family="system-ui, sans-serif" font-size="12" text-anchor="middle" font-weight="500">N=2048</text>
  <line x1="620.0" y1="70" x2="620.0" y2="430" stroke="#374151" stroke-width="0.5" />
  <text x="620.0" y="454" fill="#9CA3AF" font-family="system-ui, sans-serif" font-size="12" text-anchor="middle" font-weight="500">N=4096</text>
  <text x="90" y="38" fill="#F9FAFB" font-family="system-ui, sans-serif" font-size="18" font-weight="700">Attention Runtime Scaling (Log Scale)</text>
  <text x="90" y="54" fill="#9CA3AF" font-family="system-ui, sans-serif" font-size="11">Sequence Length vs. Average Execution Time (d=64, lower is better)</text>
  <path d="M 90.0,277.41224367668383 L 222.5,251.29374052780662 L 355.0,210.52783426476827 L 487.5,175.40505050984243 L 620.0,144.2550565658558" fill="none" stroke="#7F8C8D" stroke-width="2.5" stroke-linecap="round" stroke-linejoin="round" />
  <circle cx="90.0" cy="277.41224367668383" r="5" fill="#111827" stroke="#7F8C8D" stroke-width="2.5" />
  <circle cx="222.5" cy="251.29374052780662" r="5" fill="#111827" stroke="#7F8C8D" stroke-width="2.5" />
  <circle cx="355.0" cy="210.52783426476827" r="5" fill="#111827" stroke="#7F8C8D" stroke-width="2.5" />
  <circle cx="487.5" cy="175.40505050984243" r="5" fill="#111827" stroke="#7F8C8D" stroke-width="2.5" />
  <circle cx="620.0" cy="144.2550565658558" r="5" fill="#111827" stroke="#7F8C8D" stroke-width="2.5" />
  <path d="M 90.0,291.7428033853538 L 222.5,260.90108361786463 L 355.0,229.97793383431826 L 487.5,201.99853901605096 L 620.0,172.6942450784756" fill="none" stroke="#E74C3C" stroke-width="2.5" stroke-linecap="round" stroke-linejoin="round" />
  <circle cx="90.0" cy="291.7428033853538" r="5" fill="#111827" stroke="#E74C3C" stroke-width="2.5" />
  <circle cx="222.5" cy="260.90108361786463" r="5" fill="#111827" stroke="#E74C3C" stroke-width="2.5" />
  <circle cx="355.0" cy="229.97793383431826" r="5" fill="#111827" stroke="#E74C3C" stroke-width="2.5" />
  <circle cx="487.5" cy="201.99853901605096" r="5" fill="#111827" stroke="#E74C3C" stroke-width="2.5" />
  <circle cx="620.0" cy="172.6942450784756" r="5" fill="#111827" stroke="#E74C3C" stroke-width="2.5" />
  <path d="M 90.0,318.32640702980456 L 222.5,302.7521938571764 L 355.0,287.8440618722233 L 487.5,272.18564168759144 L 620.0,252.94955731597491" fill="none" stroke="#3498DB" stroke-width="2.5" stroke-linecap="round" stroke-linejoin="round" />
  <circle cx="90.0" cy="318.32640702980456" r="5" fill="#111827" stroke="#3498DB" stroke-width="2.5" />
  <circle cx="222.5" cy="302.7521938571764" r="5" fill="#111827" stroke="#3498DB" stroke-width="2.5" />
  <circle cx="355.0" cy="287.8440618722233" r="5" fill="#111827" stroke="#3498DB" stroke-width="2.5" />
  <circle cx="487.5" cy="272.18564168759144" r="5" fill="#111827" stroke="#3498DB" stroke-width="2.5" />
  <circle cx="620.0" cy="252.94955731597491" r="5" fill="#111827" stroke="#3498DB" stroke-width="2.5" />
  <path d="M 90.0,330.6067392027488 L 222.5,315.06232303252864 L 355.0,300.2619586296346 L 487.5,284.8869544172975 L 620.0,267.97420240284396" fill="none" stroke="#2ECC71" stroke-width="4" stroke-linecap="round" stroke-linejoin="round" filter="url(#fused-glow)" />
  <circle cx="90.0" cy="330.6067392027488" r="5" fill="#111827" stroke="#2ECC71" stroke-width="2.5" />
  <circle cx="90.0" cy="330.6067392027488" r="2" fill="#2ECC71" />
  <circle cx="222.5" cy="315.06232303252864" r="5" fill="#111827" stroke="#2ECC71" stroke-width="2.5" />
  <circle cx="222.5" cy="315.06232303252864" r="2" fill="#2ECC71" />
  <circle cx="355.0" cy="300.2619586296346" r="5" fill="#111827" stroke="#2ECC71" stroke-width="2.5" />
  <circle cx="355.0" cy="300.2619586296346" r="2" fill="#2ECC71" />
  <circle cx="487.5" cy="284.8869544172975" r="5" fill="#111827" stroke="#2ECC71" stroke-width="2.5" />
  <circle cx="487.5" cy="284.8869544172975" r="2" fill="#2ECC71" />
  <circle cx="620.0" cy="267.97420240284396" r="5" fill="#111827" stroke="#2ECC71" stroke-width="2.5" />
  <circle cx="620.0" cy="267.97420240284396" r="2" fill="#2ECC71" />
  <rect x="635" y="70" width="150" height="150" fill="#1F2937" rx="8" stroke="#374151" stroke-width="1" />
  <rect x="645" y="74" width="14" height="14" fill="#7F8C8D" rx="3" />
  <text x="667" y="85" fill="#F3F4F6" font-family="system-ui, sans-serif" font-size="12" font-weight="600">CPU Kernel</text>
  <rect x="645" y="104" width="14" height="14" fill="#E74C3C" rx="3" />
  <text x="667" y="115" fill="#F3F4F6" font-family="system-ui, sans-serif" font-size="12" font-weight="600">Naive Kernel</text>
  <rect x="645" y="134" width="14" height="14" fill="#3498DB" rx="3" />
  <text x="667" y="145" fill="#F3F4F6" font-family="system-ui, sans-serif" font-size="12" font-weight="600">Tiled Kernel</text>
  <rect x="645" y="164" width="14" height="14" fill="#2ECC71" rx="3" />
  <text x="667" y="175" fill="#F3F4F6" font-family="system-ui, sans-serif" font-size="12" font-weight="600">Fused Kernel</text>
  <text x="40" y="55" fill="#9CA3AF" font-family="system-ui, sans-serif" font-size="11" font-weight="600">Runtime (ms)</text>
</svg>