<svg xmlns="http://www.w3.org/2000/svg" viewBox="0 0 800 500" width="100%" height="100%">
<defs>
  <filter id="speedup-glow" x="-20%" y="-20%" width="140%" height="140%">
        <feGaussianBlur stdDeviation="4" result="blur" />
        <feComposite in="SourceGraphic" in2="blur" operator="over" />
      </filter>
</defs>
<rect width="800" height="500" fill="#111827" rx="12" />
  <line x1="90" y1="430.0" x2="620" y2="430.0" stroke="#374151" stroke-dasharray="3,3" stroke-width="1" />
  <text x="78" y="434.0" fill="#9CA3AF" font-family="system-ui, sans-serif" font-size="11" text-anchor="end">0x</text>
  <line x1="90" y1="358.0" x2="620" y2="358.0" stroke="#374151" stroke-dasharray="3,3" stroke-width="1" />
  <text x="78" y="362.0" fill="#9CA3AF" font-family="system-ui, sans-serif" font-size="11" text-anchor="end">60x</text>
  <line x1="90" y1="286.0" x2="620" y2="286.0" stroke="#374151" stroke-dasharray="3,3" stroke-width="1" />
  <text x="78" y="290.0" fill="#9CA3AF" font-family="system-ui, sans-serif" font-size="11" text-anchor="end">120x</text>
  <line x1="90" y1="214.0" x2="620" y2="214.0" stroke="#374151" stroke-dasharray="3,3" stroke-width="1" />
  <text x="78" y="218.0" fill="#9CA3AF" font-family="system-ui, sans-serif" font-size="11" text-anchor="end">180x</text>
  <line x1="90" y1="142.0" x2="620" y2="142.0" stroke="#374151" stroke-dasharray="3,3" stroke-width="1" />
  <text x="78" y="146.0" fill="#9CA3AF" font-family="system-ui, sans-serif" font-size="11" text-anchor="end">240x</text>
  <line x1="90" y1="70.0" x2="620" y2="70.0" stroke="#374151" stroke-dasharray="3,3" stroke-width="1" />
  <text x="78" y="74.0" fill="#9CA3AF" font-family="system-ui, sans-serif" font-size="11" text-anchor="end">300x</text>
  <line x1="90.0" y1="70" x2="90.0" y2="430" stroke="#374151" stroke-width="0.5" />
  <text x="90.0" y="454" fill="#9CA3AF" font-family="system-ui, sans-serif" font-size="12" text-anchor="middle" font-weight="500">N=256</text>
  <line x1="222.5" y1="70" x2="222.5" y2="430" stroke="#374151" stroke-width="0.5" />
  <text x="222.5" y="454" fill="#9CA3AF" font-family="system-ui, sans-serif" font-size="12" text-anchor="middle" font-weight="500">N=512</text>
  <line x1="355.0" y1="70" x2="355.0" y2="430" stroke="#374151" stroke-width="0.5" />
  <text x="355.0" y="454" fill="#9CA3AF" font-family="system-ui, sans-serif" font-size="12" text-anchor="middle" font-weight="500">N=1024</text>
  <line x1="487.5" y1="70" x2="487.5" y2="430" stroke="#374151" stroke-width="0.5" />
  <text x="487.5" y="454" fill="#9CA3AF" font-family="system-ui, sans-serif" font-size="12" text-anchor="middle" font-weight="500">N=2048</text>
  <line x1="620.0" y1="70" x2="620.0" y2="430" stroke="#374151" stroke-width="0.5" />
  <text x="620.0" y="454" fill="#9CA3AF" font-family="system-ui, sans-serif" font-size="12" text-anchor="middle" font-weight="500">N=4096</text>
  <text x="90" y="38" fill="#F9FAFB" font-family="system-ui, sans-serif" font-size="18" font-weight="700">GPU Speedup vs. CPU Baseline</text>
  <text x="90" y="54" fill="#9CA3AF" font-family="system-ui, sans-serif" font-size="11">Sequence Length vs. Speedup Factor (higher is better)</text>
  <path d="M 90.0,427.720552 L 222.5,428.155024 L 355.0,427.133332 L 487.5,426.052912 L 620.0,425.712868" fill="none" stroke="#E74C3C" stroke-width="2.5" stroke-linecap="round" stroke-linejoin="round" />
  <text x="628.0" y="437.712868" fill="#E74C3C" font-family="system-ui, sans-serif" font-size="12" font-weight="700" text-anchor="start">3.6x</text>
  <circle cx="90.0" cy="427.720552" r="5" fill="#111827" stroke="#E74C3C" stroke-width="2.5" />
  <circle cx="222.5" cy="428.155024" r="5" fill="#111827" stroke="#E74C3C" stroke-width="2.5" />
  <circle cx="355.0" cy="427.133332" r="5" fill="#111827" stroke="#E74C3C" stroke-width="2.5" />
  <circle cx="487.5" cy="426.052912" r="5" fill="#111827" stroke="#E74C3C" stroke-width="2.5" />
  <circle cx="620.0" cy="425.712868" r="5" fill="#111827" stroke="#E74C3C" stroke-width="2.5" />
  <path d="M 90.0,422.50563999999997 L 222.5,417.98392 L 355.0,391.75696 L 487.5,338.58316 L 620.0,274.15840000000003" fill="none" stroke="#3498DB" stroke-width="2.5" stroke-linecap="round" stroke-linejoin="round" />
  <text x="628.0" y="289.15840000000003" fill="#3498DB" font-family="system-ui, sans-serif" font-size="12" font-weight="700" text-anchor="start">129.9x</text>
  <circle cx="90.0" cy="422.50563999999997" r="5" fill="#111827" stroke="#3498DB" stroke-width="2.5" />
  <circle cx="222.5" cy="417.98392" r="5" fill="#111827" stroke="#3498DB" stroke-width="2.5" />
  <circle cx="355.0" cy="391.75696" r="5" fill="#111827" stroke="#3498DB" stroke-width="2.5" />
  <circle cx="487.5" cy="338.58316" r="5" fill="#111827" stroke="#3498DB" stroke-width="2.5" />
  <circle cx="620.0" cy="274.15840000000003" r="5" fill="#111827" stroke="#3498DB" stroke-width="2.5" />
  <path d="M 90.0,417.01276 L 222.5,409.14916 L 355.0,363.31768 L 487.5,268.5652 L 620.0,124.62760000000003" fill="none" stroke="#2ECC71" stroke-width="4" stroke-linecap="round" stroke-linejoin="round" filter="url(#speedup-glow)" />
  <text x="628.0" y="112.62760000000003" fill="#2ECC71" font-family="system-ui, sans-serif" font-size="12" font-weight="700" text-anchor="start">254.5x</text>
  <circle cx="90.0" cy="417.01276" r="5" fill="#111827" stroke="#2ECC71" stroke-width="2.5" />
  <circle cx="90.0" cy="417.01276" r="2" fill="#2ECC71" />
  <circle cx="222.5" cy="409.14916" r="5" fill="#111827" stroke="#2ECC71" stroke-width="2.5" />
  <circle cx="222.5" cy="409.14916" r="2" fill="#2ECC71" />
  <circle cx="355.0" cy="363.31768" r="5" fill="#111827" stroke="#2ECC71" stroke-width="2.5" />
  <circle cx="355.0" cy="363.31768" r="2" fill="#2ECC71" />
  <circle cx="487.5" cy="268.5652" r="5" fill="#111827" stroke="#2ECC71" stroke-width="2.5" />
  <circle cx="487.5" cy="268.5652" r="2" fill="#2ECC71" />
  <circle cx="620.0" cy="124.62760000000003" r="5" fill="#111827" stroke="#2ECC71" stroke-width="2.5" />
  <circle cx="620.0" cy="124.62760000000003" r="2" fill="#2ECC71" />
  <rect x="635" y="70" width="150" height="120" fill="#1F2937" rx="8" stroke="#374151" stroke-width="1" />
  <rect x="645" y="74" width="14" height="14" fill="#E74C3C" rx="3" />
  <text x="667" y="85" fill="#F3F4F6" font-family="system-ui, sans-serif" font-size="12" font-weight="600">Naive GPU</text>
  <rect x="645" y="104" width="14" height="14" fill="#3498DB" rx="3" />
  <text x="667" y="115" fill="#F3F4F6" font-family="system-ui, sans-serif" font-size="12" font-weight="600">Tiled GPU</text>
  <rect x="645" y="134" width="14" height="14" fill="#2ECC71" rx="3" />
  <text x="667" y="145" fill="#F3F4F6" font-family="system-ui, sans-serif" font-size="12" font-weight="600">Fused GPU</text>
  <text x="40" y="55" fill="#9CA3AF" font-family="system-ui, sans-serif" font-size="11" font-weight="600">Speedup Factor</text>
</svg>